<?xml version="1.0" encoding="utf-8" ?>
<svg baseProfile="full" height="80mm" version="1.1" viewBox="0 0 80 80" width="80mm" xmlns="http://www.w3.org/2000/svg" xmlns:ev="http://www.w3.org/2001/xml-events" xmlns:xlink="http://www.w3.org/1999/xlink"><defs><linearGradient id="id17" x1="0" x2="80" y1="0" y2="0"><stop offset="0" stop-color="#FFD700" stop-opacity="0.8" /><stop offset="0.5" stop-color="#FF4500" stop-opacity="0.9" /><stop offset="1" stop-color="#FFD700" stop-opacity="0.8" /></linearGradient><linearGradient id="uvGradient" x1="0" x2="0" y1="0" y2="80"><stop offset="0" stop-color="#FFFFFF" stop-opacity="0.3" /><stop offset="0.5" stop-color="#FFFFFF" stop-opacity="0.5" /><stop offset="1" stop-color="#FFFFFF" stop-opacity="0.3" /></linearGradient></defs><rect fill="url(#id17) none" height="80mm" width="80mm" x="0" y="0" /><line opacity="0.5" stroke="url(#uvGradient)" stroke-width="0.5mm" x1="0mm" x2="0mm" y1="0" y2="80mm" /><line opacity="0.5" stroke="url(#uvGradient)" stroke-width="0.5mm" x1="5mm" x2="5mm" y1="0" y2="80mm" /><line opacity="0.5" stroke="url(#uvGradient)" stroke-width="0.5mm" x1="10mm" x2="10mm" y1="0" y2="80mm" /><line opacity="0.5" stroke="url(#uvGradient)" stroke-width="0.5mm" x1="15mm" x2="15mm" y1="0" y2="80mm" /><line opacity="0.5" stroke="url(#uvGradient)" stroke-width="0.5mm" x1="20mm" x2="20mm" y1="0" y2="80mm" /><line opacity="0.5" stroke="url(#uvGradient)" stroke-width="0.5mm" x1="25mm" x2="25mm" y1="0" y2="80mm" /><line opacity="0.5" stroke="url(#uvGradient)" stroke-width="0.5mm" x1="30mm" x2="30mm" y1="0" y2="80mm" /><line opacity="0.5" stroke="url(#uvGradient)" stroke-width="0.5mm" x1="35mm" x2="35mm" y1="0" y2="80mm" /><line opacity="0.5" stroke="url(#uvGradient)" stroke-width="0.5mm" x1="40mm" x2="40mm" y1="0" y2="80mm" /><line opacity="0.5" stroke="url(#uvGradient)" stroke-width="0.5mm" x1="45mm" x2="45mm" y1="0" y2="80mm" /><line opacity="0.5" stroke="url(#uvGradient)" stroke-width="0.5mm" x1="50mm" x2="50mm" y1="0" y2="80mm" /><line opacity="0.5" stroke="url(#uvGradient)" stroke-width="0.5mm" x1="55mm" x2="55mm" y1="0" y2="80mm" /><line opacity="0.5" stroke="url(#uvGradient)" stroke-width="0.5mm" x1="60mm" x2="60mm" y1="0" y2="80mm" /><line opacity="0.5" stroke="url(#uvGradient)" stroke-width="0.5mm" x1="65mm" x2="65mm" y1="0" y2="80mm" /><line opacity="0.5" stroke="url(#uvGradient)" stroke-width="0.5mm" x1="70mm" x2="70mm" y1="0" y2="80mm" /><line opacity="0.5" stroke="url(#uvGradient)" stroke-width="0.5mm" x1="75mm" x2="75mm" y1="0" y2="80mm" /><g style="font-size:16.0px; font-family:Arial, sans-serif; font-weight:bold"><text dominant-baseline="middle" fill="none" stroke="#000000" stroke-width="0.5mm" text-anchor="middle" x="40.0mm" y="40.0mm">Brown's Fashion</text><text dominant-baseline="middle" fill="#FFFFFF" text-anchor="middle" x="40.0mm" y="40.0mm">Brown's Fashion</text></g><rect class="uv-marker" fill="#FFFFFF" height="2mm" opacity="0.5" width="2mm" x="0mm" y="0mm" /><rect class="uv-marker" fill="#FFFFFF" height="2mm" opacity="0.5" width="2mm" x="78mm" y="0mm" /><rect class="uv-marker" fill="#FFFFFF" height="2mm" opacity="0.5" width="2mm" x="0mm" y="78mm" /><rect class="uv-marker" fill="#FFFFFF" height="2mm" opacity="0.5" width="2mm" x="78mm" y="78mm" /></svg>