<?xml version="1.0" encoding="UTF-8"?>
<svg width="800" height="800" viewBox="0 0 800 800" xmlns="http://www.w3.org/2000/svg">
  <rect width="800" height="800" fill="#f3f4f6"/>
  <g transform="translate(400,400)">
    <!-- Shoe Body -->
    <path d="M-150,0 C-150,-50 -100,-80 0,-80 C100,-80 150,-50 180,0 C180,50 100,80 0,80 C-100,80 -150,50 -150,0 Z" 
          fill="#4b5563"/>
    
    <!-- Shoe Details -->
    <path d="M-120,-20 C-120,-40 -80,-60 0,-60 C80,-60 120,-40 150,-20" 
          fill="none" stroke="#9ca3af" stroke-width="5"/>
    
    <!-- Laces -->
    <g stroke="#9ca3af" stroke-width="3">
      <line x1="-40" y1="-40" x2="40" y2="-40"/>
      <line x1="-40" y1="-30" x2="40" y2="-30"/>
      <line x1="-40" y1="-20" x2="40" y2="-20"/>
      <line x1="-40" y1="-10" x2="40" y2="-10"/>
    </g>
    
    <!-- Sole -->
    <path d="M-150,0 C-150,20 -100,40 0,40 C100,40 150,20 180,0" 
          fill="none" stroke="#1f2937" stroke-width="10"/>
  </g>
  <text x="400" y="650" font-family="Arial" font-size="24" fill="#4b5563" text-anchor="middle">Running Shoes</text>
</svg>